<mxfile host="app.diagrams.net" modified="2020-05-20T07:35:34.892Z" agent="5.0 (Windows NT 6.1; WOW64) AppleWebKit/537.36 (KHTML, like Gecko) Chrome/80.0.3987.163 Safari/537.36" etag="Oe2k09oR896KJPNkhNHY" version="13.1.3" type="github">
  <diagram id="rjtkX_v5sropJGC4vKv6" name="第 1 页">
    <mxGraphModel dx="3685" dy="1089" grid="1" gridSize="10" guides="1" tooltips="1" connect="1" arrows="1" fold="1" page="1" pageScale="1" pageWidth="827" pageHeight="1169" math="0" shadow="0">
      <root>
        <mxCell id="0" />
        <mxCell id="1" parent="0" />
        <mxCell id="uEd3gaqZkU-Tlx0PcVxE-41" value="" style="edgeStyle=orthogonalEdgeStyle;rounded=0;orthogonalLoop=1;jettySize=auto;html=1;" parent="1" source="uEd3gaqZkU-Tlx0PcVxE-39" target="uEd3gaqZkU-Tlx0PcVxE-40" edge="1">
          <mxGeometry relative="1" as="geometry">
            <Array as="points">
              <mxPoint x="155" y="240" />
              <mxPoint x="155" y="240" />
            </Array>
          </mxGeometry>
        </mxCell>
        <mxCell id="uEd3gaqZkU-Tlx0PcVxE-45" value="" style="edgeStyle=orthogonalEdgeStyle;rounded=0;orthogonalLoop=1;jettySize=auto;html=1;" parent="1" source="uEd3gaqZkU-Tlx0PcVxE-39" target="uEd3gaqZkU-Tlx0PcVxE-44" edge="1">
          <mxGeometry relative="1" as="geometry">
            <Array as="points">
              <mxPoint x="640" y="270" />
              <mxPoint x="640" y="270" />
            </Array>
          </mxGeometry>
        </mxCell>
        <mxCell id="uEd3gaqZkU-Tlx0PcVxE-47" value="" style="edgeStyle=orthogonalEdgeStyle;rounded=0;orthogonalLoop=1;jettySize=auto;html=1;" parent="1" source="uEd3gaqZkU-Tlx0PcVxE-39" target="uEd3gaqZkU-Tlx0PcVxE-46" edge="1">
          <mxGeometry relative="1" as="geometry">
            <Array as="points">
              <mxPoint x="520" y="240" />
              <mxPoint x="520" y="240" />
            </Array>
          </mxGeometry>
        </mxCell>
        <mxCell id="uEd3gaqZkU-Tlx0PcVxE-55" value="" style="edgeStyle=orthogonalEdgeStyle;rounded=0;orthogonalLoop=1;jettySize=auto;html=1;" parent="1" source="uEd3gaqZkU-Tlx0PcVxE-39" target="uEd3gaqZkU-Tlx0PcVxE-54" edge="1">
          <mxGeometry relative="1" as="geometry">
            <Array as="points">
              <mxPoint x="275" y="250" />
              <mxPoint x="275" y="250" />
            </Array>
          </mxGeometry>
        </mxCell>
        <mxCell id="uEd3gaqZkU-Tlx0PcVxE-59" value="" style="edgeStyle=orthogonalEdgeStyle;rounded=0;orthogonalLoop=1;jettySize=auto;html=1;" parent="1" source="uEd3gaqZkU-Tlx0PcVxE-39" target="uEd3gaqZkU-Tlx0PcVxE-56" edge="1">
          <mxGeometry relative="1" as="geometry">
            <Array as="points">
              <mxPoint x="395" y="220" />
              <mxPoint x="395" y="220" />
            </Array>
          </mxGeometry>
        </mxCell>
        <mxCell id="uEd3gaqZkU-Tlx0PcVxE-143" value="" style="edgeStyle=orthogonalEdgeStyle;rounded=0;orthogonalLoop=1;jettySize=auto;html=1;" parent="1" source="uEd3gaqZkU-Tlx0PcVxE-39" target="uEd3gaqZkU-Tlx0PcVxE-142" edge="1">
          <mxGeometry relative="1" as="geometry" />
        </mxCell>
        <mxCell id="uEd3gaqZkU-Tlx0PcVxE-39" value="苗木之家" style="rounded=0;whiteSpace=wrap;html=1;fillColor=#fff2cc;strokeColor=#d6b656;" parent="1" vertex="1">
          <mxGeometry x="120" y="140" width="540" height="60" as="geometry" />
        </mxCell>
        <mxCell id="uEd3gaqZkU-Tlx0PcVxE-142" value="搜索" style="rounded=0;whiteSpace=wrap;html=1;fillColor=#b0e3e6;strokeColor=#0e8088;" parent="1" vertex="1">
          <mxGeometry x="-50" y="140" width="90" height="60" as="geometry" />
        </mxCell>
        <mxCell id="uEd3gaqZkU-Tlx0PcVxE-54" value="分类" style="rounded=0;whiteSpace=wrap;html=1;fillColor=#6a00ff;strokeColor=#3700CC;fontColor=#ffffff;" parent="1" vertex="1">
          <mxGeometry x="230" y="280" width="90" height="40" as="geometry" />
        </mxCell>
        <mxCell id="uEd3gaqZkU-Tlx0PcVxE-82" value="工程用苗" style="rounded=0;whiteSpace=wrap;html=1;fillColor=#6a00ff;strokeColor=#3700CC;fontColor=#ffffff;" parent="1" vertex="1">
          <mxGeometry x="90" y="450" width="60" height="40" as="geometry" />
        </mxCell>
        <mxCell id="uEd3gaqZkU-Tlx0PcVxE-104" value="" style="edgeStyle=orthogonalEdgeStyle;rounded=0;orthogonalLoop=1;jettySize=auto;html=1;" parent="1" source="uEd3gaqZkU-Tlx0PcVxE-46" target="uEd3gaqZkU-Tlx0PcVxE-103" edge="1">
          <mxGeometry relative="1" as="geometry">
            <Array as="points">
              <mxPoint x="520" y="350" />
              <mxPoint x="520" y="350" />
            </Array>
          </mxGeometry>
        </mxCell>
        <mxCell id="uEd3gaqZkU-Tlx0PcVxE-109" value="" style="edgeStyle=orthogonalEdgeStyle;rounded=0;orthogonalLoop=1;jettySize=auto;html=1;" parent="1" source="uEd3gaqZkU-Tlx0PcVxE-46" target="uEd3gaqZkU-Tlx0PcVxE-105" edge="1">
          <mxGeometry relative="1" as="geometry">
            <Array as="points">
              <mxPoint x="520" y="330" />
              <mxPoint x="414" y="330" />
            </Array>
          </mxGeometry>
        </mxCell>
        <mxCell id="uEd3gaqZkU-Tlx0PcVxE-112" value="" style="edgeStyle=orthogonalEdgeStyle;rounded=0;orthogonalLoop=1;jettySize=auto;html=1;" parent="1" source="uEd3gaqZkU-Tlx0PcVxE-46" target="uEd3gaqZkU-Tlx0PcVxE-106" edge="1">
          <mxGeometry relative="1" as="geometry">
            <Array as="points">
              <mxPoint x="520" y="330" />
              <mxPoint x="600" y="330" />
            </Array>
          </mxGeometry>
        </mxCell>
        <mxCell id="uEd3gaqZkU-Tlx0PcVxE-46" value="苗圃" style="rounded=0;whiteSpace=wrap;html=1;fillColor=#1ba1e2;strokeColor=#006EAF;fontColor=#ffffff;" parent="1" vertex="1">
          <mxGeometry x="480" y="280" width="80" height="40" as="geometry" />
        </mxCell>
        <mxCell id="uEd3gaqZkU-Tlx0PcVxE-103" value="精选" style="rounded=0;whiteSpace=wrap;html=1;fillColor=#1ba1e2;strokeColor=#006EAF;fontColor=#ffffff;" parent="1" vertex="1">
          <mxGeometry x="485" y="360" width="70" height="40" as="geometry" />
        </mxCell>
        <mxCell id="uEd3gaqZkU-Tlx0PcVxE-113" value="" style="edgeStyle=orthogonalEdgeStyle;rounded=0;orthogonalLoop=1;jettySize=auto;html=1;entryX=0.5;entryY=0;entryDx=0;entryDy=0;" parent="1" source="uEd3gaqZkU-Tlx0PcVxE-44" target="uEd3gaqZkU-Tlx0PcVxE-114" edge="1">
          <mxGeometry relative="1" as="geometry">
            <mxPoint x="640" y="460" as="targetPoint" />
            <Array as="points">
              <mxPoint x="640" y="430" />
            </Array>
          </mxGeometry>
        </mxCell>
        <mxCell id="uEd3gaqZkU-Tlx0PcVxE-44" value="我的" style="rounded=0;whiteSpace=wrap;html=1;fillColor=#e51400;strokeColor=#B20000;fontColor=#ffffff;" parent="1" vertex="1">
          <mxGeometry x="600" y="280" width="80" height="40" as="geometry" />
        </mxCell>
        <mxCell id="uEd3gaqZkU-Tlx0PcVxE-76" value="" style="edgeStyle=orthogonalEdgeStyle;rounded=0;orthogonalLoop=1;jettySize=auto;html=1;" parent="1" source="uEd3gaqZkU-Tlx0PcVxE-40" target="uEd3gaqZkU-Tlx0PcVxE-66" edge="1">
          <mxGeometry relative="1" as="geometry">
            <Array as="points">
              <mxPoint x="80" y="340" />
              <mxPoint x="80" y="340" />
            </Array>
          </mxGeometry>
        </mxCell>
        <mxCell id="uEd3gaqZkU-Tlx0PcVxE-77" value="" style="edgeStyle=orthogonalEdgeStyle;rounded=0;orthogonalLoop=1;jettySize=auto;html=1;" parent="1" source="uEd3gaqZkU-Tlx0PcVxE-40" target="uEd3gaqZkU-Tlx0PcVxE-69" edge="1">
          <mxGeometry relative="1" as="geometry">
            <Array as="points">
              <mxPoint x="120" y="340" />
              <mxPoint x="120" y="340" />
            </Array>
          </mxGeometry>
        </mxCell>
        <mxCell id="uEd3gaqZkU-Tlx0PcVxE-79" value="" style="edgeStyle=orthogonalEdgeStyle;rounded=0;orthogonalLoop=1;jettySize=auto;html=1;" parent="1" source="uEd3gaqZkU-Tlx0PcVxE-40" target="uEd3gaqZkU-Tlx0PcVxE-67" edge="1">
          <mxGeometry relative="1" as="geometry">
            <mxPoint x="180" y="380" as="targetPoint" />
            <Array as="points">
              <mxPoint x="160" y="400" />
            </Array>
          </mxGeometry>
        </mxCell>
        <mxCell id="uEd3gaqZkU-Tlx0PcVxE-40" value="home" style="rounded=0;whiteSpace=wrap;html=1;fillColor=#60a917;strokeColor=#2D7600;fontColor=#ffffff;" parent="1" vertex="1">
          <mxGeometry x="60" y="280" width="140" height="40" as="geometry" />
        </mxCell>
        <mxCell id="uEd3gaqZkU-Tlx0PcVxE-60" value="推荐" style="rounded=0;whiteSpace=wrap;html=1;fillColor=#60a917;strokeColor=#2D7600;fontColor=#ffffff;" parent="1" vertex="1">
          <mxGeometry x="30" y="360" width="30" height="40" as="geometry" />
        </mxCell>
        <mxCell id="uEd3gaqZkU-Tlx0PcVxE-56" value="识别" style="rounded=0;whiteSpace=wrap;html=1;fillColor=#d80073;strokeColor=#A50040;fontColor=#ffffff;" parent="1" vertex="1">
          <mxGeometry x="350" y="280" width="90" height="40" as="geometry" />
        </mxCell>
        <mxCell id="uEd3gaqZkU-Tlx0PcVxE-62" value="" style="edgeStyle=orthogonalEdgeStyle;rounded=0;orthogonalLoop=1;jettySize=auto;html=1;" parent="1" source="uEd3gaqZkU-Tlx0PcVxE-40" target="uEd3gaqZkU-Tlx0PcVxE-60" edge="1">
          <mxGeometry relative="1" as="geometry">
            <mxPoint x="140.02857142857135" y="320" as="sourcePoint" />
            <mxPoint x="125" y="400" as="targetPoint" />
            <Array as="points">
              <mxPoint x="70" y="330" />
              <mxPoint x="50" y="330" />
            </Array>
          </mxGeometry>
        </mxCell>
        <mxCell id="uEd3gaqZkU-Tlx0PcVxE-66" value="资讯" style="rounded=0;whiteSpace=wrap;html=1;fillColor=#60a917;strokeColor=#2D7600;fontColor=#ffffff;" parent="1" vertex="1">
          <mxGeometry x="70" y="360" width="30" height="40" as="geometry" />
        </mxCell>
        <mxCell id="uEd3gaqZkU-Tlx0PcVxE-67" value="养护知识" style="rounded=0;whiteSpace=wrap;html=1;fillColor=#60a917;strokeColor=#2D7600;fontColor=#ffffff;" parent="1" vertex="1">
          <mxGeometry x="140" y="360" width="30" height="40" as="geometry" />
        </mxCell>
        <mxCell id="uEd3gaqZkU-Tlx0PcVxE-68" value="奇花异草" style="rounded=0;whiteSpace=wrap;html=1;fillColor=#60a917;strokeColor=#2D7600;fontColor=#ffffff;" parent="1" vertex="1">
          <mxGeometry x="180" y="360" width="30" height="40" as="geometry" />
        </mxCell>
        <mxCell id="uEd3gaqZkU-Tlx0PcVxE-69" value="视频" style="rounded=0;whiteSpace=wrap;html=1;fillColor=#60a917;strokeColor=#2D7600;fontColor=#ffffff;" parent="1" vertex="1">
          <mxGeometry x="105" y="360" width="30" height="40" as="geometry" />
        </mxCell>
        <mxCell id="uEd3gaqZkU-Tlx0PcVxE-70" value="风景园林" style="rounded=0;whiteSpace=wrap;html=1;fillColor=#60a917;strokeColor=#2D7600;fontColor=#ffffff;" parent="1" vertex="1">
          <mxGeometry x="220" y="360" width="30" height="40" as="geometry" />
        </mxCell>
        <mxCell id="uEd3gaqZkU-Tlx0PcVxE-80" value="" style="edgeStyle=orthogonalEdgeStyle;rounded=0;orthogonalLoop=1;jettySize=auto;html=1;" parent="1" target="uEd3gaqZkU-Tlx0PcVxE-68" edge="1">
          <mxGeometry relative="1" as="geometry">
            <mxPoint x="180" y="320" as="sourcePoint" />
            <mxPoint x="218" y="380" as="targetPoint" />
            <Array as="points">
              <mxPoint x="180" y="340" />
              <mxPoint x="195" y="340" />
            </Array>
          </mxGeometry>
        </mxCell>
        <mxCell id="uEd3gaqZkU-Tlx0PcVxE-81" value="" style="edgeStyle=orthogonalEdgeStyle;rounded=0;orthogonalLoop=1;jettySize=auto;html=1;" parent="1" source="uEd3gaqZkU-Tlx0PcVxE-40" target="uEd3gaqZkU-Tlx0PcVxE-70" edge="1">
          <mxGeometry relative="1" as="geometry">
            <mxPoint x="234.96" y="330" as="sourcePoint" />
            <mxPoint x="255" y="400" as="targetPoint" />
            <Array as="points">
              <mxPoint x="210" y="300" />
              <mxPoint x="210" y="350" />
              <mxPoint x="235" y="350" />
            </Array>
          </mxGeometry>
        </mxCell>
        <mxCell id="uEd3gaqZkU-Tlx0PcVxE-89" value="" style="edgeStyle=orthogonalEdgeStyle;rounded=0;orthogonalLoop=1;jettySize=auto;html=1;" parent="1" source="uEd3gaqZkU-Tlx0PcVxE-54" target="uEd3gaqZkU-Tlx0PcVxE-82" edge="1">
          <mxGeometry relative="1" as="geometry">
            <mxPoint x="280.02857142857147" y="320" as="sourcePoint" />
            <mxPoint x="280.02857142857147" y="520" as="targetPoint" />
            <Array as="points">
              <mxPoint x="280" y="420" />
              <mxPoint x="130" y="420" />
            </Array>
          </mxGeometry>
        </mxCell>
        <mxCell id="uEd3gaqZkU-Tlx0PcVxE-93" value="" style="edgeStyle=orthogonalEdgeStyle;rounded=0;orthogonalLoop=1;jettySize=auto;html=1;" parent="1" source="uEd3gaqZkU-Tlx0PcVxE-54" target="uEd3gaqZkU-Tlx0PcVxE-94" edge="1">
          <mxGeometry relative="1" as="geometry">
            <mxPoint x="280.02857142857147" y="320" as="sourcePoint" />
            <mxPoint x="130.02857142857135" y="545" as="targetPoint" />
            <Array as="points">
              <mxPoint x="280" y="420" />
              <mxPoint x="190" y="420" />
            </Array>
          </mxGeometry>
        </mxCell>
        <mxCell id="uEd3gaqZkU-Tlx0PcVxE-94" value="家庭用苗" style="rounded=0;whiteSpace=wrap;html=1;fillColor=#6a00ff;strokeColor=#3700CC;fontColor=#ffffff;" parent="1" vertex="1">
          <mxGeometry x="160" y="450" width="60" height="40" as="geometry" />
        </mxCell>
        <mxCell id="uEd3gaqZkU-Tlx0PcVxE-100" value="供应大厅" style="rounded=0;whiteSpace=wrap;html=1;fillColor=#6a00ff;strokeColor=#3700CC;fontColor=#ffffff;" parent="1" vertex="1">
          <mxGeometry x="240" y="450" width="60" height="40" as="geometry" />
        </mxCell>
        <mxCell id="uEd3gaqZkU-Tlx0PcVxE-102" value="" style="edgeStyle=orthogonalEdgeStyle;rounded=0;orthogonalLoop=1;jettySize=auto;html=1;" parent="1" source="uEd3gaqZkU-Tlx0PcVxE-54" target="uEd3gaqZkU-Tlx0PcVxE-100" edge="1">
          <mxGeometry relative="1" as="geometry">
            <mxPoint x="280.02857142857147" y="320" as="sourcePoint" />
            <mxPoint x="275" y="450" as="targetPoint" />
            <Array as="points">
              <mxPoint x="280" y="360" />
              <mxPoint x="280" y="360" />
            </Array>
          </mxGeometry>
        </mxCell>
        <mxCell id="uEd3gaqZkU-Tlx0PcVxE-105" value="最新" style="rounded=0;whiteSpace=wrap;html=1;fillColor=#1ba1e2;strokeColor=#006EAF;fontColor=#ffffff;" parent="1" vertex="1">
          <mxGeometry x="374" y="360" width="80" height="40" as="geometry" />
        </mxCell>
        <mxCell id="uEd3gaqZkU-Tlx0PcVxE-106" value="话题" style="rounded=0;whiteSpace=wrap;html=1;fillColor=#1ba1e2;strokeColor=#006EAF;fontColor=#ffffff;" parent="1" vertex="1">
          <mxGeometry x="560" y="360" width="70" height="40" as="geometry" />
        </mxCell>
        <mxCell id="uEd3gaqZkU-Tlx0PcVxE-121" value="" style="edgeStyle=orthogonalEdgeStyle;rounded=0;orthogonalLoop=1;jettySize=auto;html=1;" parent="1" target="uEd3gaqZkU-Tlx0PcVxE-120" edge="1">
          <mxGeometry relative="1" as="geometry">
            <mxPoint x="610" y="490" as="sourcePoint" />
            <Array as="points">
              <mxPoint x="610" y="510" />
              <mxPoint x="402" y="510" />
            </Array>
          </mxGeometry>
        </mxCell>
        <mxCell id="uEd3gaqZkU-Tlx0PcVxE-114" value="个人服务" style="rounded=0;whiteSpace=wrap;html=1;fillColor=#e51400;strokeColor=#B20000;fontColor=#ffffff;" parent="1" vertex="1">
          <mxGeometry x="590" y="430" width="100" height="60" as="geometry" />
        </mxCell>
        <mxCell id="uEd3gaqZkU-Tlx0PcVxE-120" value="收藏" style="rounded=0;whiteSpace=wrap;html=1;fillColor=#e51400;strokeColor=#B20000;fontColor=#ffffff;" parent="1" vertex="1">
          <mxGeometry x="374" y="570" width="56" height="40" as="geometry" />
        </mxCell>
        <mxCell id="uEd3gaqZkU-Tlx0PcVxE-115" value="" style="edgeStyle=orthogonalEdgeStyle;rounded=0;orthogonalLoop=1;jettySize=auto;html=1;exitX=0.5;exitY=1;exitDx=0;exitDy=0;" parent="1" source="uEd3gaqZkU-Tlx0PcVxE-44" edge="1">
          <mxGeometry relative="1" as="geometry">
            <mxPoint x="760" y="320.0000000000001" as="sourcePoint" />
            <mxPoint x="750" y="430" as="targetPoint" />
            <Array as="points">
              <mxPoint x="640" y="380" />
              <mxPoint x="750" y="380" />
              <mxPoint x="750" y="430" />
            </Array>
          </mxGeometry>
        </mxCell>
        <mxCell id="uEd3gaqZkU-Tlx0PcVxE-133" value="" style="edgeStyle=orthogonalEdgeStyle;rounded=0;orthogonalLoop=1;jettySize=auto;html=1;" parent="1" source="uEd3gaqZkU-Tlx0PcVxE-117" target="uEd3gaqZkU-Tlx0PcVxE-132" edge="1">
          <mxGeometry relative="1" as="geometry">
            <Array as="points">
              <mxPoint x="760" y="620" />
              <mxPoint x="525" y="620" />
            </Array>
          </mxGeometry>
        </mxCell>
        <mxCell id="uEd3gaqZkU-Tlx0PcVxE-117" value="工程服务" style="rounded=0;whiteSpace=wrap;html=1;fillColor=#e51400;strokeColor=#B20000;fontColor=#ffffff;" parent="1" vertex="1">
          <mxGeometry x="710" y="430" width="90" height="60" as="geometry" />
        </mxCell>
        <mxCell id="uEd3gaqZkU-Tlx0PcVxE-132" value="我的供应" style="rounded=0;whiteSpace=wrap;html=1;fillColor=#e51400;strokeColor=#B20000;fontColor=#ffffff;" parent="1" vertex="1">
          <mxGeometry x="490" y="650" width="70" height="40" as="geometry" />
        </mxCell>
        <mxCell id="uEd3gaqZkU-Tlx0PcVxE-122" value="我的苗圃" style="rounded=0;whiteSpace=wrap;html=1;fillColor=#e51400;strokeColor=#B20000;fontColor=#ffffff;" parent="1" vertex="1">
          <mxGeometry x="454" y="570" width="80" height="40" as="geometry" />
        </mxCell>
        <mxCell id="uEd3gaqZkU-Tlx0PcVxE-123" value="浏览历史" style="rounded=0;whiteSpace=wrap;html=1;fillColor=#e51400;strokeColor=#B20000;fontColor=#ffffff;" parent="1" vertex="1">
          <mxGeometry x="555" y="570" width="60" height="40" as="geometry" />
        </mxCell>
        <mxCell id="uEd3gaqZkU-Tlx0PcVxE-124" value="" style="edgeStyle=orthogonalEdgeStyle;rounded=0;orthogonalLoop=1;jettySize=auto;html=1;" parent="1" edge="1">
          <mxGeometry relative="1" as="geometry">
            <mxPoint x="610" y="490" as="sourcePoint" />
            <mxPoint x="490" y="570" as="targetPoint" />
            <Array as="points">
              <mxPoint x="610" y="490" />
              <mxPoint x="610" y="510" />
              <mxPoint x="490" y="510" />
            </Array>
          </mxGeometry>
        </mxCell>
        <mxCell id="uEd3gaqZkU-Tlx0PcVxE-125" value="" style="edgeStyle=orthogonalEdgeStyle;rounded=0;orthogonalLoop=1;jettySize=auto;html=1;" parent="1" target="uEd3gaqZkU-Tlx0PcVxE-123" edge="1">
          <mxGeometry relative="1" as="geometry">
            <mxPoint x="610" y="490" as="sourcePoint" />
            <mxPoint x="580" y="570" as="targetPoint" />
            <Array as="points">
              <mxPoint x="610" y="490" />
              <mxPoint x="610" y="510" />
              <mxPoint x="590" y="510" />
            </Array>
          </mxGeometry>
        </mxCell>
        <mxCell id="uEd3gaqZkU-Tlx0PcVxE-129" value="" style="edgeStyle=orthogonalEdgeStyle;rounded=0;orthogonalLoop=1;jettySize=auto;html=1;" parent="1" target="uEd3gaqZkU-Tlx0PcVxE-131" edge="1">
          <mxGeometry relative="1" as="geometry">
            <mxPoint x="611" y="510" as="sourcePoint" />
            <mxPoint x="610.0344827586207" y="570" as="targetPoint" />
            <Array as="points">
              <mxPoint x="670" y="510" />
            </Array>
          </mxGeometry>
        </mxCell>
        <mxCell id="uEd3gaqZkU-Tlx0PcVxE-131" value="个人订单" style="rounded=0;whiteSpace=wrap;html=1;fillColor=#e51400;strokeColor=#B20000;fontColor=#ffffff;" parent="1" vertex="1">
          <mxGeometry x="640" y="570" width="60" height="40" as="geometry" />
        </mxCell>
        <mxCell id="uEd3gaqZkU-Tlx0PcVxE-135" value="" style="edgeStyle=orthogonalEdgeStyle;rounded=0;orthogonalLoop=1;jettySize=auto;html=1;" parent="1" source="uEd3gaqZkU-Tlx0PcVxE-117" target="uEd3gaqZkU-Tlx0PcVxE-140" edge="1">
          <mxGeometry relative="1" as="geometry">
            <mxPoint x="759.9999999999998" y="490" as="sourcePoint" />
            <mxPoint x="609.9999999999998" y="720" as="targetPoint" />
            <Array as="points">
              <mxPoint x="760" y="620" />
              <mxPoint x="605" y="620" />
            </Array>
          </mxGeometry>
        </mxCell>
        <mxCell id="uEd3gaqZkU-Tlx0PcVxE-137" value="" style="edgeStyle=orthogonalEdgeStyle;rounded=0;orthogonalLoop=1;jettySize=auto;html=1;" parent="1" source="uEd3gaqZkU-Tlx0PcVxE-117" target="uEd3gaqZkU-Tlx0PcVxE-141" edge="1">
          <mxGeometry relative="1" as="geometry">
            <mxPoint x="759.9999999999998" y="490" as="sourcePoint" />
            <mxPoint x="640" y="710" as="targetPoint" />
            <Array as="points">
              <mxPoint x="760" y="620" />
              <mxPoint x="685" y="620" />
            </Array>
          </mxGeometry>
        </mxCell>
        <mxCell id="uEd3gaqZkU-Tlx0PcVxE-138" value="" style="edgeStyle=orthogonalEdgeStyle;rounded=0;orthogonalLoop=1;jettySize=auto;html=1;" parent="1" source="uEd3gaqZkU-Tlx0PcVxE-117" target="uEd3gaqZkU-Tlx0PcVxE-139" edge="1">
          <mxGeometry relative="1" as="geometry">
            <mxPoint x="759.9999999999998" y="490" as="sourcePoint" />
            <mxPoint x="640" y="710" as="targetPoint" />
            <Array as="points">
              <mxPoint x="760" y="660" />
              <mxPoint x="760" y="660" />
            </Array>
          </mxGeometry>
        </mxCell>
        <mxCell id="uEd3gaqZkU-Tlx0PcVxE-139" value="我的苗圃" style="rounded=0;whiteSpace=wrap;html=1;fillColor=#e51400;strokeColor=#B20000;fontColor=#ffffff;" parent="1" vertex="1">
          <mxGeometry x="730" y="650" width="60" height="40" as="geometry" />
        </mxCell>
        <mxCell id="uEd3gaqZkU-Tlx0PcVxE-140" value="我的求购" style="rounded=0;whiteSpace=wrap;html=1;fillColor=#e51400;strokeColor=#B20000;fontColor=#ffffff;" parent="1" vertex="1">
          <mxGeometry x="570" y="650" width="70" height="40" as="geometry" />
        </mxCell>
        <mxCell id="uEd3gaqZkU-Tlx0PcVxE-141" value="我的比价" style="rounded=0;whiteSpace=wrap;html=1;fillColor=#e51400;strokeColor=#B20000;fontColor=#ffffff;" parent="1" vertex="1">
          <mxGeometry x="650" y="650" width="70" height="40" as="geometry" />
        </mxCell>
        <mxCell id="-nhrvavigjJ9o5X687Ey-3" value="" style="edgeStyle=orthogonalEdgeStyle;rounded=0;orthogonalLoop=1;jettySize=auto;html=1;" edge="1" parent="1" source="-nhrvavigjJ9o5X687Ey-1" target="-nhrvavigjJ9o5X687Ey-2">
          <mxGeometry relative="1" as="geometry">
            <Array as="points">
              <mxPoint x="-640" y="290" />
              <mxPoint x="-740" y="290" />
            </Array>
          </mxGeometry>
        </mxCell>
        <mxCell id="-nhrvavigjJ9o5X687Ey-5" value="" style="edgeStyle=orthogonalEdgeStyle;rounded=0;orthogonalLoop=1;jettySize=auto;html=1;" edge="1" parent="1" source="-nhrvavigjJ9o5X687Ey-1" target="-nhrvavigjJ9o5X687Ey-4">
          <mxGeometry relative="1" as="geometry">
            <Array as="points">
              <mxPoint x="-600" y="280" />
              <mxPoint x="-600" y="280" />
            </Array>
          </mxGeometry>
        </mxCell>
        <mxCell id="-nhrvavigjJ9o5X687Ey-7" value="" style="edgeStyle=orthogonalEdgeStyle;rounded=0;orthogonalLoop=1;jettySize=auto;html=1;" edge="1" parent="1" source="-nhrvavigjJ9o5X687Ey-1" target="-nhrvavigjJ9o5X687Ey-6">
          <mxGeometry relative="1" as="geometry">
            <Array as="points">
              <mxPoint x="-353" y="290" />
              <mxPoint x="-353" y="290" />
            </Array>
          </mxGeometry>
        </mxCell>
        <mxCell id="-nhrvavigjJ9o5X687Ey-9" value="" style="edgeStyle=orthogonalEdgeStyle;rounded=0;orthogonalLoop=1;jettySize=auto;html=1;" edge="1" parent="1" source="-nhrvavigjJ9o5X687Ey-1" target="-nhrvavigjJ9o5X687Ey-8">
          <mxGeometry relative="1" as="geometry">
            <Array as="points">
              <mxPoint x="-485" y="270" />
              <mxPoint x="-485" y="270" />
            </Array>
          </mxGeometry>
        </mxCell>
        <mxCell id="-nhrvavigjJ9o5X687Ey-10" value="" style="edgeStyle=orthogonalEdgeStyle;rounded=0;orthogonalLoop=1;jettySize=auto;html=1;" edge="1" parent="1" source="-nhrvavigjJ9o5X687Ey-1" target="-nhrvavigjJ9o5X687Ey-11">
          <mxGeometry relative="1" as="geometry">
            <Array as="points">
              <mxPoint x="-260" y="290" />
              <mxPoint x="-230" y="290" />
            </Array>
          </mxGeometry>
        </mxCell>
        <mxCell id="-nhrvavigjJ9o5X687Ey-59" value="" style="edgeStyle=orthogonalEdgeStyle;rounded=0;orthogonalLoop=1;jettySize=auto;html=1;" edge="1" parent="1" source="-nhrvavigjJ9o5X687Ey-1" target="-nhrvavigjJ9o5X687Ey-58">
          <mxGeometry relative="1" as="geometry" />
        </mxCell>
        <mxCell id="-nhrvavigjJ9o5X687Ey-1" value="小程序" style="rounded=0;whiteSpace=wrap;html=1;fillColor=#008a00;strokeColor=#005700;fontColor=#ffffff;" vertex="1" parent="1">
          <mxGeometry x="-710" y="190" width="460" height="60" as="geometry" />
        </mxCell>
        <mxCell id="-nhrvavigjJ9o5X687Ey-58" value="搜索" style="rounded=0;whiteSpace=wrap;html=1;fillColor=#dae8fc;strokeColor=#6c8ebf;" vertex="1" parent="1">
          <mxGeometry x="-890" y="190" width="100" height="60" as="geometry" />
        </mxCell>
        <mxCell id="-nhrvavigjJ9o5X687Ey-8" value="购物车" style="rounded=0;whiteSpace=wrap;html=1;fillColor=#e51400;strokeColor=#B20000;fontColor=#ffffff;" vertex="1" parent="1">
          <mxGeometry x="-540" y="330" width="110" height="60" as="geometry" />
        </mxCell>
        <mxCell id="-nhrvavigjJ9o5X687Ey-6" value="积分兑换" style="rounded=0;whiteSpace=wrap;html=1;fillColor=#76608a;strokeColor=#432D57;fontColor=#ffffff;" vertex="1" parent="1">
          <mxGeometry x="-410" y="330" width="103" height="60" as="geometry" />
        </mxCell>
        <mxCell id="-nhrvavigjJ9o5X687Ey-4" value="分类" style="rounded=0;whiteSpace=wrap;html=1;fillColor=#1ba1e2;strokeColor=#006EAF;fontColor=#ffffff;" vertex="1" parent="1">
          <mxGeometry x="-650" y="330" width="100" height="60" as="geometry" />
        </mxCell>
        <mxCell id="-nhrvavigjJ9o5X687Ey-15" value="" style="edgeStyle=orthogonalEdgeStyle;rounded=0;orthogonalLoop=1;jettySize=auto;html=1;" edge="1" parent="1" source="-nhrvavigjJ9o5X687Ey-2" target="-nhrvavigjJ9o5X687Ey-16">
          <mxGeometry relative="1" as="geometry">
            <mxPoint x="-780" y="480" as="targetPoint" />
            <Array as="points">
              <mxPoint x="-740" y="420" />
              <mxPoint x="-785" y="420" />
            </Array>
          </mxGeometry>
        </mxCell>
        <mxCell id="-nhrvavigjJ9o5X687Ey-30" value="" style="edgeStyle=orthogonalEdgeStyle;rounded=0;orthogonalLoop=1;jettySize=auto;html=1;" edge="1" parent="1" source="-nhrvavigjJ9o5X687Ey-2" target="-nhrvavigjJ9o5X687Ey-29">
          <mxGeometry relative="1" as="geometry">
            <Array as="points">
              <mxPoint x="-740" y="420" />
              <mxPoint x="-710" y="420" />
            </Array>
          </mxGeometry>
        </mxCell>
        <mxCell id="-nhrvavigjJ9o5X687Ey-31" value="待实现" style="edgeLabel;html=1;align=center;verticalAlign=middle;resizable=0;points=[];" vertex="1" connectable="0" parent="-nhrvavigjJ9o5X687Ey-30">
          <mxGeometry x="0.6167" y="-1" relative="1" as="geometry">
            <mxPoint as="offset" />
          </mxGeometry>
        </mxCell>
        <mxCell id="-nhrvavigjJ9o5X687Ey-2" value="首页" style="rounded=0;whiteSpace=wrap;html=1;fillColor=#d80073;strokeColor=#A50040;fontColor=#ffffff;" vertex="1" parent="1">
          <mxGeometry x="-800" y="330" width="120" height="60" as="geometry" />
        </mxCell>
        <mxCell id="-nhrvavigjJ9o5X687Ey-29" value="植物识别/只能推荐/阳台绿化" style="rounded=0;whiteSpace=wrap;html=1;" vertex="1" parent="1">
          <mxGeometry x="-750" y="480" width="80" height="30" as="geometry" />
        </mxCell>
        <mxCell id="-nhrvavigjJ9o5X687Ey-33" value="" style="edgeStyle=orthogonalEdgeStyle;rounded=0;orthogonalLoop=1;jettySize=auto;html=1;" edge="1" parent="1" source="-nhrvavigjJ9o5X687Ey-11" target="-nhrvavigjJ9o5X687Ey-32">
          <mxGeometry relative="1" as="geometry" />
        </mxCell>
        <mxCell id="-nhrvavigjJ9o5X687Ey-11" value="我的" style="rounded=0;whiteSpace=wrap;html=1;fillColor=#f0a30a;strokeColor=#BD7000;fontColor=#ffffff;" vertex="1" parent="1">
          <mxGeometry x="-280" y="330" width="90" height="60" as="geometry" />
        </mxCell>
        <mxCell id="-nhrvavigjJ9o5X687Ey-32" value="客服" style="rounded=0;whiteSpace=wrap;html=1;fillColor=#fa6800;strokeColor=#C73500;fontColor=#ffffff;" vertex="1" parent="1">
          <mxGeometry x="-255" y="500" width="40" height="30" as="geometry" />
        </mxCell>
        <mxCell id="-nhrvavigjJ9o5X687Ey-13" value="" style="endArrow=none;html=1;" edge="1" parent="1">
          <mxGeometry width="50" height="50" relative="1" as="geometry">
            <mxPoint x="-140" y="850" as="sourcePoint" />
            <mxPoint x="-140" y="110" as="targetPoint" />
          </mxGeometry>
        </mxCell>
        <mxCell id="-nhrvavigjJ9o5X687Ey-16" value="每日推荐" style="rounded=0;whiteSpace=wrap;html=1;" vertex="1" parent="1">
          <mxGeometry x="-810" y="480" width="50" height="30" as="geometry" />
        </mxCell>
        <mxCell id="-nhrvavigjJ9o5X687Ey-17" value="" style="edgeStyle=orthogonalEdgeStyle;rounded=0;orthogonalLoop=1;jettySize=auto;html=1;entryX=0.5;entryY=0;entryDx=0;entryDy=0;" edge="1" parent="1" source="-nhrvavigjJ9o5X687Ey-2" target="-nhrvavigjJ9o5X687Ey-22">
          <mxGeometry relative="1" as="geometry">
            <mxPoint x="-840" y="390" as="sourcePoint" />
            <mxPoint x="-870" y="480" as="targetPoint" />
            <Array as="points">
              <mxPoint x="-740" y="420" />
              <mxPoint x="-850" y="420" />
            </Array>
          </mxGeometry>
        </mxCell>
        <mxCell id="-nhrvavigjJ9o5X687Ey-19" value="" style="edgeStyle=orthogonalEdgeStyle;rounded=0;orthogonalLoop=1;jettySize=auto;html=1;" edge="1" parent="1">
          <mxGeometry relative="1" as="geometry">
            <mxPoint x="-740" y="390" as="sourcePoint" />
            <mxPoint x="-980" y="480" as="targetPoint" />
            <Array as="points">
              <mxPoint x="-740" y="420" />
              <mxPoint x="-980" y="420" />
            </Array>
          </mxGeometry>
        </mxCell>
        <mxCell id="-nhrvavigjJ9o5X687Ey-20" value="精选" style="rounded=0;whiteSpace=wrap;html=1;" vertex="1" parent="1">
          <mxGeometry x="-1010" y="480" width="60" height="30" as="geometry" />
        </mxCell>
        <mxCell id="-nhrvavigjJ9o5X687Ey-21" value="热卖" style="rounded=0;whiteSpace=wrap;html=1;" vertex="1" parent="1">
          <mxGeometry x="-940" y="480" width="50" height="30" as="geometry" />
        </mxCell>
        <mxCell id="-nhrvavigjJ9o5X687Ey-22" value="促销" style="rounded=0;whiteSpace=wrap;html=1;" vertex="1" parent="1">
          <mxGeometry x="-880" y="480" width="60" height="30" as="geometry" />
        </mxCell>
        <mxCell id="-nhrvavigjJ9o5X687Ey-25" value="" style="edgeStyle=orthogonalEdgeStyle;rounded=0;orthogonalLoop=1;jettySize=auto;html=1;" edge="1" parent="1">
          <mxGeometry relative="1" as="geometry">
            <mxPoint x="-740" y="390" as="sourcePoint" />
            <mxPoint x="-910" y="480" as="targetPoint" />
            <Array as="points">
              <mxPoint x="-740" y="420" />
              <mxPoint x="-910" y="420" />
              <mxPoint x="-910" y="480" />
            </Array>
          </mxGeometry>
        </mxCell>
        <mxCell id="-nhrvavigjJ9o5X687Ey-34" value="" style="edgeStyle=orthogonalEdgeStyle;rounded=0;orthogonalLoop=1;jettySize=auto;html=1;" edge="1" parent="1" source="-nhrvavigjJ9o5X687Ey-11">
          <mxGeometry relative="1" as="geometry">
            <mxPoint x="-235" y="390" as="sourcePoint" />
            <mxPoint x="-540" y="500" as="targetPoint" />
            <Array as="points">
              <mxPoint x="-235" y="430" />
              <mxPoint x="-540" y="430" />
              <mxPoint x="-540" y="500" />
            </Array>
          </mxGeometry>
        </mxCell>
        <mxCell id="-nhrvavigjJ9o5X687Ey-35" value="" style="edgeStyle=orthogonalEdgeStyle;rounded=0;orthogonalLoop=1;jettySize=auto;html=1;" edge="1" parent="1" source="-nhrvavigjJ9o5X687Ey-11">
          <mxGeometry relative="1" as="geometry">
            <mxPoint x="-235" y="390" as="sourcePoint" />
            <mxPoint x="-490" y="500" as="targetPoint" />
            <Array as="points">
              <mxPoint x="-235" y="430" />
              <mxPoint x="-490" y="430" />
              <mxPoint x="-490" y="500" />
            </Array>
          </mxGeometry>
        </mxCell>
        <mxCell id="-nhrvavigjJ9o5X687Ey-36" value="" style="edgeStyle=orthogonalEdgeStyle;rounded=0;orthogonalLoop=1;jettySize=auto;html=1;" edge="1" parent="1" source="-nhrvavigjJ9o5X687Ey-11">
          <mxGeometry relative="1" as="geometry">
            <mxPoint x="-235" y="390" as="sourcePoint" />
            <mxPoint x="-180" y="500" as="targetPoint" />
            <Array as="points">
              <mxPoint x="-235" y="430" />
              <mxPoint x="-180" y="430" />
            </Array>
          </mxGeometry>
        </mxCell>
        <mxCell id="-nhrvavigjJ9o5X687Ey-42" value="全部订单" style="rounded=0;whiteSpace=wrap;html=1;fillColor=#fa6800;strokeColor=#C73500;fontColor=#ffffff;" vertex="1" parent="1">
          <mxGeometry x="-560" y="500" width="40" height="30" as="geometry" />
        </mxCell>
        <mxCell id="-nhrvavigjJ9o5X687Ey-43" value="代付款" style="rounded=0;whiteSpace=wrap;html=1;fillColor=#fa6800;strokeColor=#C73500;fontColor=#ffffff;" vertex="1" parent="1">
          <mxGeometry x="-510" y="500" width="40" height="30" as="geometry" />
        </mxCell>
        <mxCell id="-nhrvavigjJ9o5X687Ey-44" value="待发货" style="rounded=0;whiteSpace=wrap;html=1;fillColor=#fa6800;strokeColor=#C73500;fontColor=#ffffff;" vertex="1" parent="1">
          <mxGeometry x="-460" y="500" width="40" height="30" as="geometry" />
        </mxCell>
        <mxCell id="-nhrvavigjJ9o5X687Ey-45" value="" style="edgeStyle=orthogonalEdgeStyle;rounded=0;orthogonalLoop=1;jettySize=auto;html=1;" edge="1" parent="1" source="-nhrvavigjJ9o5X687Ey-11">
          <mxGeometry relative="1" as="geometry">
            <mxPoint x="-235" y="390" as="sourcePoint" />
            <mxPoint x="-440" y="500" as="targetPoint" />
            <Array as="points">
              <mxPoint x="-235" y="430" />
              <mxPoint x="-440" y="430" />
              <mxPoint x="-440" y="500" />
            </Array>
          </mxGeometry>
        </mxCell>
        <mxCell id="-nhrvavigjJ9o5X687Ey-46" value="" style="edgeStyle=orthogonalEdgeStyle;rounded=0;orthogonalLoop=1;jettySize=auto;html=1;exitX=0.5;exitY=1;exitDx=0;exitDy=0;" edge="1" parent="1" source="-nhrvavigjJ9o5X687Ey-11">
          <mxGeometry relative="1" as="geometry">
            <mxPoint x="-190" y="390" as="sourcePoint" />
            <mxPoint x="-395" y="500" as="targetPoint" />
            <Array as="points">
              <mxPoint x="-235" y="430" />
              <mxPoint x="-395" y="430" />
            </Array>
          </mxGeometry>
        </mxCell>
        <mxCell id="-nhrvavigjJ9o5X687Ey-47" value="待收货" style="rounded=0;whiteSpace=wrap;html=1;fillColor=#fa6800;strokeColor=#C73500;fontColor=#ffffff;" vertex="1" parent="1">
          <mxGeometry x="-413" y="500" width="40" height="30" as="geometry" />
        </mxCell>
        <mxCell id="-nhrvavigjJ9o5X687Ey-48" value="" style="edgeStyle=orthogonalEdgeStyle;rounded=0;orthogonalLoop=1;jettySize=auto;html=1;exitX=0.5;exitY=1;exitDx=0;exitDy=0;" edge="1" parent="1" source="-nhrvavigjJ9o5X687Ey-11">
          <mxGeometry relative="1" as="geometry">
            <mxPoint x="-235" y="390" as="sourcePoint" />
            <mxPoint x="-350" y="500" as="targetPoint" />
            <Array as="points">
              <mxPoint x="-235" y="430" />
              <mxPoint x="-350" y="430" />
              <mxPoint x="-350" y="500" />
            </Array>
          </mxGeometry>
        </mxCell>
        <mxCell id="-nhrvavigjJ9o5X687Ey-49" value="待评价" style="rounded=0;whiteSpace=wrap;html=1;fillColor=#fa6800;strokeColor=#C73500;fontColor=#ffffff;" vertex="1" parent="1">
          <mxGeometry x="-370" y="500" width="40" height="30" as="geometry" />
        </mxCell>
        <mxCell id="-nhrvavigjJ9o5X687Ey-51" value="" style="edgeStyle=orthogonalEdgeStyle;rounded=0;orthogonalLoop=1;jettySize=auto;html=1;exitX=0.5;exitY=1;exitDx=0;exitDy=0;" edge="1" parent="1" source="-nhrvavigjJ9o5X687Ey-11">
          <mxGeometry relative="1" as="geometry">
            <mxPoint x="-205" y="390" as="sourcePoint" />
            <mxPoint x="-300" y="500" as="targetPoint" />
            <Array as="points">
              <mxPoint x="-235" y="430" />
              <mxPoint x="-300" y="430" />
              <mxPoint x="-300" y="500" />
            </Array>
          </mxGeometry>
        </mxCell>
        <mxCell id="-nhrvavigjJ9o5X687Ey-52" value="地址" style="rounded=0;whiteSpace=wrap;html=1;fillColor=#fa6800;strokeColor=#C73500;fontColor=#ffffff;" vertex="1" parent="1">
          <mxGeometry x="-320" y="500" width="40" height="30" as="geometry" />
        </mxCell>
        <mxCell id="-nhrvavigjJ9o5X687Ey-53" value="优惠券" style="rounded=0;whiteSpace=wrap;html=1;fillColor=#fa6800;strokeColor=#C73500;fontColor=#ffffff;" vertex="1" parent="1">
          <mxGeometry x="-200" y="500" width="40" height="30" as="geometry" />
        </mxCell>
      </root>
    </mxGraphModel>
  </diagram>
</mxfile>
